<?xml version="1.0" encoding="utf-8"?>
<!-- Generator: Adobe Illustrator 19.0.0, SVG Export Plug-In . SVG Version: 6.00 Build 0)  -->
<svg version="1.1" id="Layer_1" xmlns="http://www.w3.org/2000/svg" xmlns:xlink="http://www.w3.org/1999/xlink" x="0px" y="0px"
	 viewBox="0 0 324.6 222.3" style="enable-background:new 0 0 324.6 222.3;" xml:space="preserve">
<style type="text/css">
	.st0{fill:#F8E819;}
	.st1{fill:none;stroke:#95959E;stroke-width:2.3187;stroke-miterlimit:10;}
	.st2{fill:#141414;}
	.st3{fill:#FFFFFF;stroke:#070808;stroke-width:0.9803;stroke-linejoin:bevel;stroke-miterlimit:10;}
	.st4{fill:#FFFFFF;stroke:#070808;stroke-width:1.0161;stroke-linejoin:bevel;stroke-miterlimit:10;}
	.st5{fill:#FFFFFF;stroke:#070808;stroke-width:1.0573;stroke-linejoin:bevel;stroke-miterlimit:10;}
	.st6{fill:#FFFFFF;stroke:#070808;stroke-width:1.0402;stroke-linejoin:bevel;stroke-miterlimit:10;}
	.st7{fill:#FFFFFF;stroke:#070808;stroke-width:1.051;stroke-linejoin:bevel;stroke-miterlimit:10;}
	.st8{fill:#FFFFFF;stroke:#070808;stroke-width:1.0495;stroke-linejoin:bevel;stroke-miterlimit:10;}
	.st9{fill:#FFFFFF;stroke:#070808;stroke-width:1.0647;stroke-linejoin:bevel;stroke-miterlimit:10;}
	.st10{fill:#FFFFFF;stroke:#070808;stroke-width:1.0857;stroke-linejoin:bevel;stroke-miterlimit:10;}
	.st11{fill:#FFFFFF;stroke:#070808;stroke-width:1.0603;stroke-linejoin:bevel;stroke-miterlimit:10;}
	.st12{fill:#A49F35;}
	.st13{fill:#548B91;}
	.st14{fill:#87CEBB;}
</style>
<g id="XMLID_1_">
	<g id="XMLID_209_">
		<g id="XMLID_72_">
			<path id="XMLID_78_" class="st0" d="M323.8,217.5c-107.7,5.7-215.4,6.3-322.7,1.7C10.7,146.1,19.9,73.3,28.7,0.6
				C125.3,11.1,222.7,16.9,320.6,18C322,84.2,323.1,150.7,323.8,217.5z"/>
			<path id="XMLID_77_" class="st1" d="M22.5,51.3c99.1,9.1,198.9,13.4,299.1,12.9"/>
			<path id="XMLID_76_" class="st1" d="M18.2,85.3c100.8,8.2,202.2,11.5,303.9,9.9"/>
			<path id="XMLID_75_" class="st1" d="M13.9,119.4c102.5,7.2,205.5,9.6,308.7,7"/>
			<path id="XMLID_74_" class="st1" d="M9.6,153.5c104.1,6.3,208.7,7.7,313.5,4"/>
			<path id="XMLID_73_" class="st1" d="M5.2,187.6c105.8,5.4,212,5.8,318.3,1"/>
		</g>
	</g>
	<path id="XMLID_52_" class="st2" d="M263.6,124.1"/>
	<path id="XMLID_51_" d="M160.4,158.2C160.4,158.2,160.4,158.2,160.4,158.2c0.1,0.1,0.1,0.1,0.2,0.2c0-1.9,0.1-3.6,0.1-5.4
		c0-3.2-0.1-6.3-0.2-9.5c0-1.3,0.7-2.4,2-2.9c1.3-0.5,2.7-0.3,3.4,0.7c1,1.3,2.2,2.2,3.5,3.1c0.7,0.5,1.2,1.2,1.7,1.9
		c0.3,0.4,0.5,0.9,0.7,1.5c1.2-1.5,2.3-2.9,3.4-4.3c0.3-0.4,0.6-0.9,1-1.2c0.2-0.2,1-0.9,2.3-1.2c0.6-0.2,1.6-0.4,2.6,0
		c0.5,0.2,0.9,0.6,2.1,2.2c1.5,2.2,2.2,3.4,2.2,4.2c0.1,1.4-0.5,2.5-1.5,4.1c-1,1.7-2.3,3-2.5,3.2c-1.4,1.5-2.2,1.7-2.3,2.5
		c-0.1,0.7,0.4,1.1,1.5,2.8c0.5,0.7,1.1,1.7,2.3,3.8c0.9,1.5,1.4,2.5,2.1,3.9c2.1,4.1,2.1,4.9,2,5.5c0,0.3-0.3,2.3-2.1,3.2
		c-1.4,0.7-2.8,0.2-3,0.1c-0.6-0.2-1.1-0.7-2-1.6c-0.5-0.5-1.1-1.1-1.8-1.9c-1.3-1.6-1.7-2.8-3.1-5.8c-0.4-0.9-1-2.2-1.9-3.8
		c-0.9,0.7-1.8,1.3-2.7,2c0,0.7,0,1.9,0,3.3c0,2.1,0.1,2.6-0.1,3.4c-0.2,0.9-0.5,2.2-1.6,3.2c-1.3,1.2-2.9,1.2-3.4,1.2
		c-0.5,0-1.6,0-2.7-0.7c-0.9-0.5-1.4-1.4-2-2.6c-1.1-2.5-0.4-3.9-0.4-9.8C160.4,162,160.3,158.2,160.4,158.2z"/>
	<path id="XMLID_50_" d="M82.6,98.8c-0.2-1.6-0.3-3.2-0.5-4.8c-0.2-2.4-0.6-3.1-0.4-4.3c0.4-2.2,2.1-4.4,3.5-4.3
		c0.5,0,1,0.4,1.9,1.3c0.7,0.6,1.2,1.1,1.5,1.5c0.3,0.2,0.6,0.4,1.1,0.7c1.2,0.7,1.5,0.8,1.8,1c0.7,0.7,0.8,1.8,0.8,2.4
		c0,0,0.2,5.2,2.3,13c0.1,0.2,0.2,0.6,0.4,1.3c0.6,2,0.9,2.4,1.3,2.7c0.6,0.3,1.2,0.3,1.3,0.2c0.2,0,1.2-0.2,2.3-2.1
		c0.9-1.5,1.2-3.1,1.3-5.1c0.1-1.2,0.2-4-0.5-7.6c-0.7-3.5-1.2-5.3-1.2-5.3c-0.3-1.1-0.4-2.2-0.7-3.3c-0.2-0.8-0.4-1.4-0.1-1.8
		c0.1-0.2,0.4-0.4,1.8-0.8c1.1-0.3,1.6-0.4,1.9-0.4c0.6,0,1.3,0.3,4.5,3.5c0.7,0.7,1.1,1.1,1.2,1.3c1.3,1.7,1.6,3.5,1.8,4.4
		c1.1,6,1.5,11,1.5,11c0.4,5.1,0.5,5.9,0.1,7.4c-0.3,1.1-0.8,3.4-2.8,5.6c-1.9,2.1-4.1,2.9-5.1,3.3c-1.1,0.4-4.1,1.4-7.6,0.3
		c-0.6-0.2-2.3-0.7-4-2.2c-1.1-0.9-1.8-1.9-4-5.6c-0.8-1.5-1.9-3.3-3-5.4"/>
	<path id="XMLID_49_" class="st2" d="M81.8,78.6c0,0.1,0.1,0.2,0.1,0.4"/>
	<path id="XMLID_48_" d="M278.4,176.6c0.1,2.5,0.1,4.6,0.1,6.2c0,1.5-0.1,2.4-0.7,3.2c-1,1.4-2.7,1.7-3.1,1.7
		c-0.3,0.1-1.7,0.3-2.9-0.3c-0.4-0.2-2.1-1-3-5.1c-0.8-3.6-0.2-5.5,0-10.4c0.4-7.9,0.7-10.7,1.1-16.3c0.1-1.4,1.1-2.5,2.5-2.8
		c0.7-0.2,1.2-0.2,1.7,0c0.4,0.1,0.7,0.4,1.7,1.4c0.7,0.7,1,1.1,1.4,1.5c1.7,1.9,2,1.6,2.4,2.5c0.3,0.7,0.4,1.5,0.4,3
		c0,1.1-0.1,2.1-0.1,2.7c1.2,0.1,2.5,0.2,3.7,0.4c0.1-1.8,0.1-3.2,0.1-4.2c0-1.4,0.3-2.9,0.2-4.3c0-0.2-0.1-1,0.2-1.8
		c0.1-0.3,0.2-0.6,0.5-0.9c0.6-0.6,1.5-0.9,2.3-0.8c0.4,0.1,0.7,0.3,1.4,0.8c1.2,1,2,2,2.5,2.5c1.8,2,1.8,1.7,2.2,2.4
		c1,1.6,0.9,3.4,0.9,4.6c-0.6,11.2-0.8,16.8-0.8,17.1c0,0,0.2,2.8-0.9,5.7c-0.2,0.6-0.5,1-0.6,1.1c-0.6,0.8-1.2,1.2-1.6,1.3
		c-1.2,0.6-2.4,0.6-2.9,0.5c-0.7-0.1-1.9-0.2-2.9-1.1c-0.6-0.6-0.9-1.3-1.3-2.1c-0.2-0.6-0.3-1-0.5-1.5c-0.2-0.7-0.2-1.1-0.2-1.4
		c0-0.2,0-0.3,0-0.5c0.1-0.8,0.1-1.1,0.2-1.8c0.1-0.6,0.2-1.5,0.2-3.1C281.1,176.9,279.8,176.8,278.4,176.6z"/>
	<path id="XMLID_47_" d="M179.2,96.8c2,1.7,3.7,3,4.9,3.9c1.8,1.4,2.6,1.9,3.3,3.1c0.5,0.8,1.8,2.9,0.8,4.8c-0.8,1.5-2.7,2.1-4.1,2
		c-1.1-0.1-1.8-0.6-3.3-1.7c-1.3-0.9-2.2-1.9-2.9-2.6c-1.6-1.3-3.3-2.6-4.9-3.9c1,2.3,1.1,4.2,1.1,5.2c0,1-0.1,2-0.7,3.1
		c-0.9,1.7-2.6,2.7-4.1,3c-0.6,0.1-1.3,0.2-2.1-0.1c-1.1-0.5-1.6-1.5-1.8-2.1c-1.8-4-3.4-13.4-3.4-13.4c-0.8-4.3-1.3-8.7-2-13.1
		c-0.4-2.4,0.2-4.1,2.3-5.3c3.9-2.2,8.1-2.1,8.6-2.1c2.8,0.1,4.8,0.9,5.5,1.2c2.1,0.9,3.4,2,4.4,2.8c2.1,1.8,3.4,2.9,3.9,4.7
		c1.1,3.4-1.1,6.6-1.5,7.2C181.7,95.4,180,96.4,179.2,96.8z"/>
	<path id="XMLID_46_" d="M152.2,90.3c0.5,0.4,1.4,1,2.5,1.8c2,1.4,2.6,1.8,3,2.6c0.1,0.3,0.7,1.4,0.5,2.7c-0.4,1.9-2.1,2.9-3.1,3.4
		c-1.9,1.1-3.8,1.1-4.9,1c-0.6,0.1-1.2,0.2-1.8,0.3c-0.3,1.9,0,2.5,0.3,2.7c0.3,0.2,0.6,0,1.4-0.3c0.8-0.2,1.4-0.3,2.4-0.4
		c1.1-0.1,2.3-0.2,3.5,0.2c0.3,0.1,1,0.6,2.4,1.5c1.9,1.2,2.1,1.4,2.3,1.7c0.8,1.2,0.7,2.5,0.6,2.9c0,0.3-0.2,1.6-1.3,2.7
		c-0.9,0.8-1.9,1.1-2.5,1.3c-4,1-6.5,1.1-10.7,1.5c-1.6,0.2-2.5,0.3-3.4-0.2c-1.5-0.7-2.2-2.1-2.8-3.3c-0.4-0.7-0.9-1.8-1.5-5
		c-0.3-1.3-0.8-3.6-1.1-6.7c-0.3-2.6-0.2-3.5-0.8-4.8c-0.1-0.3-0.4-0.9-0.4-1.7c-0.1-1.1,0.2-1.8,0.3-2.3c0.3-1.4,0-2.7-0.6-5.3
		c-0.7-2.7-1.4-3.5-0.8-4.4c0.4-0.7,1.2-0.9,2.1-1.1c5.4-1.3,7.2-0.5,11.2-1.5c1.5-0.4,2.1-0.7,3.1-0.4c1.2,0.4,1.1,1.1,3.6,3.3
		c0.8,0.7,1.1,0.9,1.6,1.6c0.2,0.4,0.8,1.3,0.7,2.5c0,0.4,0,1.2-0.6,2c-0.5,0.6-1.1,0.8-2.3,1.3C154.2,89.9,153.3,90.1,152.2,90.3z"
		/>
	<path id="XMLID_45_" d="M198.5,170.8c2,0.2,3.6,0.2,4.7,0.2c1.5,0,2.3-0.1,3.5,0.3c0.8,0.2,1.9,0.6,2.6,1.7c1,1.4,0.6,3.2,0.5,3.8
		c-0.1,0.4-0.4,1.9-1.6,2.9c-0.6,0.5-1.4,0.8-5,0.9c-2,0-4.1-0.2-8.1-0.5c-1.8-0.2-2.6-0.3-3.5-0.8c-1.6-1-2.2-2.7-2.3-3.3
		c-0.4-1.2-0.4-2.1-0.4-3.9c0-1.5,0.2-1.7,0.3-3.7c0.2-2.8,0.2-5.2,0.1-6.2c0-1-0.1-1.5-0.1-2.9c0-0.6,0-1.6,0-3
		c0.1-2.5,0.2-2.6,0.3-5.3c0.1-1.5,0.3-3.1,0.2-4.6c-0.1-1.1-0.2-1.8,0.3-2.4c0.6-0.7,1.8-0.8,2.4-0.7c5.8,0.4,8.7,0.5,11.2,0.8
		c1.6,0.2,2.4,0.2,3.4,0.8c1.7,1,2.7,2.7,3.1,3.3c0.2,0.3,0.5,1,0.8,1.9c0.3,1.1,0.6,2.1,0.2,3c-0.2,0.5-0.6,0.8-1.1,1.2
		c-0.3,0.2-0.9,0.7-2.1,1.1c-0.8,0.3-2,0.5-3.6,0.5c1.1,1,2,1.8,2.6,2.3c1.3,1.1,1.7,1.4,2,2.1c0.1,0.2,0.7,1.6,0.1,3
		c-0.6,1.5-2,2-2.5,2.2c-1.1,0.4-1.8,0.2-4,0.1c-1-0.1-2.4-0.1-4.1-0.2"/>
	<path id="XMLID_44_" d="M261.8,173.9c0.2-0.3,0.6-0.6,1.2-0.7c0.7-0.1,1.3,0.4,2.1,1.2c1,1,1.6,1.5,1.9,2.4c0.4,1.3,0.1,2.5,0,2.9
		c-0.1,0.3-0.6,1.8-3,3.4c-3.8,2.6-7.9,2.6-8.6,2.6c-1.2,0-3.2-0.1-5.5-1.2c-2.4-1.2-3.7-3-4.9-4.6c-1.6-2.2-2.3-4.1-3-6
		c-1.5-4-1.6-7.1-1.7-7.8c-0.1-1,0-1.9,0-2.5c0.5-4.3,1.8-7.8,4.9-10.3c2-1.6,3.9-2.3,4.8-2.6c3.2-1,6.4-0.4,13,0.8
		c0.5,0.1,1.3,0.2,2.1,0.8c1.7,1.2,2.4,3.8,1.8,6c-0.1,0.4-0.6,2.1-2.1,3c-0.5,0.3-1.2,0.6-4.4,0.4c-3.9-0.2-4.6-0.8-6-0.2
		c-1.6,0.7-2.4,2.4-2.6,2.8c-0.4,0.9-0.5,1.9-0.6,3.8c-0.1,1-0.1,1.8,0.1,3c0.2,0.9,0.3,1.7,0.8,2.5c0.8,1.2,1.9,1.8,2.6,2"/>
	<path id="XMLID_43_" d="M124.5,106.2c0.2,1.8,0.4,3.8,0.7,6.7c0.2,1.5,0.3,2.6-0.4,3.5c-0.9,1.4-2.5,1.7-2.9,1.8
		c-1.5,0.3-2.7-0.1-3.1-0.3c-0.2-0.1-1.4-0.6-2.6-2c-1.3-1.6-1.6-3.3-1.9-4.7c-0.6-2.5-1-5.2-1.4-7.8c-0.7-4.7-1.4-9.5-2.1-14.2
		c-0.1-0.9-0.2-1.9-0.2-2.8c0-0.6,0.2-1.1,0.5-1.5c0.3-0.5,0.7-0.7,0.9-0.8c7.1-3.8,12.6-1.7,12.6-1.7c2.7,1.1,4.4,2.8,6.2,4.8
		c1.6,1.7,2.3,3,2.6,3.8c0.5,1,1.2,2.5,1.1,4.4c0,1.6-0.5,2.7-0.8,3.5c-0.3,0.8-0.8,2.1-1.9,3.3c-1.5,1.7-3.3,2.3-5.1,3
		C125.8,105.9,125,106.1,124.5,106.2z"/>
	<path id="XMLID_42_" d="M237.3,148.8c0.6,0.3,2.2,1.3,3,3.3c0.5,1.2,0.4,2.2,0.4,2.5c0,0.5-0.1,1.5-0.8,2.5c-0.7,1-1.6,1.3-2.2,1.6
		c-1.4,0.6-2.6,0.6-4.4,0.5c-0.8,0-1.4-0.1-1.8-0.1c-0.1,0.9-0.2,2.4-0.3,4.3c-0.7,12.5,0,17.2-2.8,19.1c-0.9,0.6-2.6,1.2-4.3,0.8
		c-0.5-0.1-1.4-0.3-2-1c-0.5-0.6-0.6-1.3-0.8-1.9c-0.1-0.5-0.1-1.4-0.2-2c-0.2-1.1,0.2-1.1,0.1-2.1c-0.2-1.3,0.4-2.6,0.4-3.9
		c0.1-2.4,0-3.7,0.3-9c0.1-1.1,0.2-2.8,0.4-4.8c-1.9-0.2-3.5-0.4-4.8-0.7c-0.8-0.1-1.7-0.3-2.4-1.1c-0.2-0.2-0.4-0.6-0.7-1.2
		c-0.6-1.2-0.9-2.1-1.2-3c-0.2-0.7-0.3-1.1-0.3-1.7c0-0.3,0-0.7,0.1-0.9c0.3-0.9,2.5-1.5,5.4-1.3"/>
	<path id="XMLID_41_" d="M159.7,159.8c0,1.4-0.1,3.4-1,5.7c-0.2,0.6-1.2,3-3.6,5.4c-0.6,0.6-1.9,2-4,3c-3.8,1.9-7.4,1.6-9.2,1.4
		c-4-0.4-7.2-2.1-8.7-3.4c-0.8-0.7-1.5-1.5-1.5-1.5c-0.4-0.5-1.2-1.4-1.8-2.7c-0.5-0.9-1.1-2.3-1-4.1c0-0.5,0.1-1.7,1-2.9
		c0.3-0.4,1.1-1.5,2.1-1.5c0.7,0,1.3,0.5,1.7,0.9c0,0,2.1,1.7,4.1,2.9c1.7,1,4.3,1.2,6.4,0.1c3.2-1.6,3.8-5.2,3.9-5.6
		c-0.7-0.2-1.7-0.6-3-0.9c-1.9-0.5-2.4-0.5-3.7-0.8c-1.3-0.3-3.3-0.8-5.3-2.2c-1.8-1.2-2.8-2.6-3.4-3.4c-0.2-0.3-1.1-1.5-2-3.4
		c-0.6-1.5-1.5-3.9-1.7-7.2c0.1-1.3,0.2-2.5,0.3-3.8c0.2-0.5,0.5-1,0.7-1.5c0.7-1.8,1.9-3.1,3.4-4.2c2-1.4,4.3-2.1,6.7-2.4
		c0.7-0.1,1.4-0.2,2.1-0.4c1.7,0.1,3.3,0.2,5,0.3c0.7,0.3,1.5,0.5,2.1,0.8c1,0.6,2,1.2,2.9,1.8c1,0.7,1.9,1.5,2.9,2.2
		c1.8,1.2,3.1,2.6,3.5,4.7c0.5,2.6-0.7,5.1-2.8,6c-1.1,0.5-2.2,0.4-3.3,0c-1.8-0.7-3.7-1.4-5.5-2.2c-2.1-0.9-3.7,0-5.4,1.2
		c1.6,0.4,3.1,0.8,4.5,1.3c1.9,0.6,3.6,1.6,5.2,2.9c1.8,1.5,2.8,2.2,3.6,2.9c2.8,2.7,4.2,6.7,4.8,9.2"/>
	<path id="XMLID_40_" d="M86,107.5c0.3,1.3,0.5,3.4,0.1,5.8c-0.1,0.6-0.6,3.2-2.5,6c-0.5,0.7-1.6,2.3-3.4,3.7c-3.4,2.6-7,2.9-8.8,3
		c-4,0.3-7.4-0.8-9.2-1.8c-0.9-0.5-1.8-1.2-1.8-1.2c-0.5-0.4-1.5-1.2-2.3-2.3c-0.6-0.8-1.5-2.1-1.7-3.9c-0.1-0.5-0.2-1.7,0.4-3
		c0.2-0.5,0.8-1.7,1.8-1.9c0.7-0.1,1.3,0.2,1.8,0.5c0,0,2.3,1.3,4.5,2.1c1.9,0.6,4.4,0.4,6.3-1c2.8-2.1,2.8-5.8,2.8-6.2
		c-0.7-0.1-1.8-0.3-3.1-0.4c-1.9-0.2-2.4,0-3.8-0.1c-1.4-0.1-3.4-0.2-5.6-1.2c-2-0.9-3.3-2.1-4-2.7c-0.3-0.3-1.4-1.3-2.6-3
		c-0.9-1.3-2.2-3.6-3-6.8c-0.1-1.3-0.3-2.5-0.4-3.8c0.2-0.5,0.3-1,0.4-1.6c0.4-1.9,1.2-3.4,2.6-4.8c1.7-1.8,3.9-2.8,6.2-3.6
		c0.7-0.2,1.3-0.5,2-0.7c1.7-0.2,3.3-0.4,5-0.6c0.8,0.1,1.5,0.2,2.3,0.4c1.1,0.4,2.2,0.8,3.2,1.3c1.1,0.5,2.1,1.2,3.2,1.6
		c1.9,0.8,3.5,2,4.3,4c0.9,2.5,0.2,5.1-1.7,6.4c-1,0.6-2.1,0.8-3.3,0.6c-1.9-0.3-3.9-0.7-5.8-1.1c-2.2-0.5-3.7,0.6-5.1,2.2
		c1.6,0.1,3.2,0.2,4.7,0.4c2,0.2,3.9,0.9,5.6,1.9c2.1,1.2,3.2,1.6,4,2.2c3.3,2.2,5.3,5.8,6.4,8.2"/>
	<path id="XMLID_109_" class="st3" d="M132.1,144.6c1.7,1.6,4.3,2.7,7.8,3.4c1.7,0.3,3.2,0.8,4.5,1.4c2.7,1.2,4.1,3.2,4,6.1
		c0,2.2-0.7,4-2.1,5.5c-1.4,1.5-2.8,2.2-4.2,2.2c-1.4,0-3-0.4-4.6-1.1c-0.5-0.2-1.3-0.6-2.4-1.2c-1.1-0.6-1.9-1-2.4-1.2
		c-0.5-0.2-1-0.2-1.6,0.1c-0.6,0.3-1.1,0.7-1.4,1.2c-0.3,0.5-0.5,0.9-0.5,1.4c0,1.1,1,2.2,2.9,3.4c3,1.8,6.1,2.8,9.1,2.8
		c3.1,0,5.5-0.6,7.2-2c3-2.5,4.6-6.4,4.7-11.6c0.1-3.5-0.8-6.1-2.5-7.8c-1.7-1.7-4-2.9-6.7-3.5c-2.8-0.6-4.9-1.3-6.4-2
		c-2-1-2.9-2.5-2.9-4.5c0-1.5,0.9-2.7,2.5-3.7c1.7-1,3.3-1.5,4.8-1.5c1.5,0,3.2,0.5,5.1,1.5c1.9,1,3.1,1.4,3.6,1.5
		c0.6,0,1-0.2,1.3-0.7c0.3-0.4,0.5-1,0.5-1.6c0-1.4-0.8-2.6-2.6-3.5c-1.8-0.9-3.9-1.4-6.5-1.5c-4-0.1-7.3,0.8-9.8,2.5
		c-2.6,1.8-3.9,4.2-3.9,7.3C129.5,140.7,130.3,143.1,132.1,144.6z"/>
	<path id="XMLID_108_" class="st3" d="M56.1,97.6c2,1.2,4.8,1.9,8.3,2c1.7,0,3.3,0.2,4.7,0.5c2.9,0.7,4.6,2.5,5.1,5.3
		c0.4,2.2,0,4.1-1.1,5.8c-1.1,1.7-2.3,2.7-3.8,2.9c-1.4,0.2-3,0.2-4.7-0.2c-0.5-0.1-1.4-0.4-2.6-0.8c-1.2-0.4-2-0.7-2.5-0.8
		c-0.5-0.1-1,0-1.6,0.4c-0.5,0.4-0.9,0.9-1.2,1.5c-0.2,0.5-0.3,1-0.3,1.4c0.2,1.1,1.4,2,3.5,2.8c3.3,1.2,6.5,1.6,9.5,1.1
		c3-0.5,5.2-1.6,6.7-3.3c2.5-3,3.4-7.1,2.5-12.3c-0.6-3.4-1.9-5.8-3.9-7.2c-2-1.4-4.4-2.1-7.3-2.2c-2.8-0.1-5-0.4-6.6-0.8
		c-2.1-0.6-3.4-1.9-3.7-3.9c-0.2-1.5,0.4-2.8,1.8-4.1c1.4-1.3,2.9-2.1,4.5-2.3c1.5-0.3,3.3-0.1,5.3,0.5c2,0.6,3.3,0.9,3.8,0.8
		c0.6-0.1,0.9-0.4,1.2-0.9c0.2-0.5,0.3-1.1,0.2-1.7c-0.2-1.4-1.3-2.4-3.2-3c-1.9-0.6-4.1-0.7-6.6-0.3c-3.9,0.7-7,2.1-9.2,4.3
		c-2.2,2.2-3,4.8-2.5,7.9C52.8,94.2,54.1,96.4,56.1,97.6z"/>
	<path id="XMLID_107_" class="st4" d="M86.1,107c1,2.5,2.5,4.4,4.4,5.7c1.9,1.3,4,1.8,6.5,1.4c3.4-0.5,5.7-1.9,7.1-4.1
		c1.3-2.2,1.8-5.5,1.5-9.7c-0.1-1.4-0.3-3.4-0.7-5.9c-0.4-2.5-1.1-5.9-2.1-10.3c-0.1-0.4-0.4-0.8-0.8-1.1c-0.5-0.3-0.9-0.4-1.5-0.3
		c-0.5,0.1-1,0.4-1.4,0.9c-0.4,0.5-0.6,1-0.6,1.3c0.1,0.4,0.1,0.7,0.2,0.8c0.8,2.4,1.6,6,2.3,10.8c1.2,8.1-0.4,12.4-4.6,13.1
		c-2,0.3-3.7-0.7-5.3-3c-1.6-2.3-2.7-5.1-3.5-8.6c-0.3-1.4-0.6-3-0.8-4.8c-0.3-1.8-0.5-3.8-0.6-6.1c0-0.6-0.2-1-0.6-1.3
		c-0.4-0.3-0.8-0.4-1.3-0.3c-0.5,0.1-1,0.3-1.5,0.8c-0.5,0.5-0.7,1-0.7,1.6c0.1,2.1,0.3,4.2,0.6,6.2C83.4,99.1,84.6,103.3,86.1,107z
		"/>
	<path id="XMLID_104_" class="st5" d="M115,111.1c0.1,1,0.4,1.7,0.9,2.1c0.4,0.4,1.2,0.6,2.3,0.4c1.1-0.2,1.7-0.8,1.6-1.8
		c-0.1-1.4-0.3-3.1-0.6-5c-0.3-1.9-0.7-4.2-1.2-6.7c1.2,0,2.3-0.1,3.3-0.2c2.6-0.4,4.6-1.3,6-2.8c1.9-2,2.5-4.9,2-8.5
		c-0.3-2.3-1.5-4.1-3.5-5.2c-2-1.1-4.5-1.5-7.5-1c-4.8,0.7-7,2-6.8,3.8l1.8,12.4L115,111.1z M118.6,86.9c0.9-0.1,1.9-0.1,3.1,0
		c2,0.2,3.1,0.9,3.4,2.1c0,0.2,0.1,0.4,0.1,0.6c0.3,1.9-0.1,3.4-1.2,4.2c-0.8,0.7-1.9,1.1-3.2,1.3c-1.3,0.2-2.6,0.3-3.7,0.3
		c-0.1-0.9-0.3-2.1-0.5-3.6c-0.2-1.5-0.4-2.9-0.5-4.3C116.8,87.2,117.6,87,118.6,86.9z"/>
	<path id="XMLID_103_" class="st6" d="M136.2,94.3c0.1,0.6,0.4,1,1,1.2l1.6,10.6c0.1,0.7,0.2,1.4,0.4,2c0.1,0.6,0.4,1.1,0.8,1.6
		c0.4,0.5,1,0.7,1.8,0.6l12.2-1.9c1.6-0.2,2.3-1.3,2-3c-0.1-0.9-0.8-1.4-2.1-1.3l-10.8,1.8c0-0.1,0-0.7-0.2-1.8l-1.4-8.4
		c2.6-0.3,4.7-0.6,6.3-0.9c1.6-0.2,2.6-0.4,3-0.5c0.5-0.1,0.9-0.5,1.2-1c0.3-0.5,0.5-1.1,0.4-1.6c-0.2-1-0.9-1.5-2.2-1.5
		c-4.8,0.7-7.9,1.1-9.6,1.3c-0.1-0.5-0.5-2.6-1-6.5c1.6-0.1,3.1-0.3,4.7-0.5c4.1-0.6,6.7-1.3,7.7-2c0.5-0.4,0.6-1,0.5-1.8
		c-0.2-1.1-0.9-1.7-2.3-1.6l-0.1,0l-11,1.4c-0.7,0.1-1.3,0.2-1.8,0.3c-1.9,0.3-2.7,1.3-2.4,2.8c0.4,2.7,0.9,5.8,1.5,9.1
		C136.3,93.2,136.2,93.7,136.2,94.3z"/>
	<path id="XMLID_65_" class="st7" d="M165.2,108.4c0.7-0.1,1.3-0.4,1.8-1c0.5-0.6,0.7-1.2,0.6-1.8l0-0.1c-0.3-1.7-0.8-4.3-1.4-7.8
		c2.1,1.1,4.3,2.4,6.5,3.9c2.2,1.5,3.7,2.6,4.6,3.5c0.8,0.8,1.5,1.2,1.9,1.2c0.5-0.1,0.8-0.2,1.1-0.3c0.9-0.5,1.3-1.3,1.2-2.5
		c-0.2-1.2-1.4-2.7-3.8-4.4c-2.3-1.8-4.9-3.3-7.8-4.7c0.4-0.1,1.3-0.8,2.8-2c1.5-1.2,2.7-2.2,3.5-3c0.8-0.8,1.5-1.9,2.1-3.2
		c0.6-1.3,0.8-2.4,0.7-3.4c-0.3-2-1.5-3.5-3.8-4.6c-2.2-1.1-4.7-1.5-7.3-1.1c-2.7,0.4-4.8,1.1-6.2,2.1c-1.5,1-2.1,2.2-1.9,3.6
		c2.1,14.3,3.4,22.4,3.9,24.5C163.8,108.2,164.3,108.6,165.2,108.4z M168.6,81.5c1.4-0.2,2.7-0.1,4,0.3c1.3,0.4,2.1,1.2,2.3,2.4
		c0.1,1.2-1.2,2.8-3.7,4.6c-2.5,1.8-4.5,2.8-5.8,3c-0.6-3.9-1-7-1.3-9.1C165.5,82.2,167,81.8,168.6,81.5z"/>
	<path id="XMLID_64_" class="st8" d="M161.1,154.1c-0.1,5.1-0.1,8.9-0.3,11.3l-0.2,3.6c-0.1,1.4,0.4,2.1,1.7,2.2
		c1.8,0.1,2.7-0.6,2.8-2.1c0-0.6,0.1-3.6,0.3-8.9c1.3-0.9,2.6-1.9,3.8-3c1.3,1.4,2.3,2.6,3.1,3.8c0.7,1.1,1.6,2.7,2.5,4.6
		c0.9,1.9,1.7,3.5,2.4,4.6c0.7,1.1,1.3,1.7,1.9,1.8c0.6,0,1.1-0.2,1.5-0.6c0.5-0.4,0.7-1,0.8-1.9c0-0.8-0.8-3-2.6-6.5
		c-1.8-3.5-3.7-6.5-5.9-8.8c5.6-5.7,8.5-9.6,8.6-11.7c0.1-1.1-0.7-1.7-2.2-1.8c-0.8,0-1.5,0.4-2.1,1.3c-1.7,2.5-3.5,4.7-5.1,6.4
		c-1.7,1.7-3.8,3.7-6.5,5.9c0.4-6.6,0.2-10.9-0.5-13.1c-0.3-0.8-0.8-1.3-1.5-1.3c-0.7,0-1.3,0.1-1.8,0.5c-0.5,0.4-0.8,0.9-0.8,1.3
		c0,0.5,0,1.4,0.1,2.6C161.1,145.8,161.1,149,161.1,154.1z"/>
	<path id="XMLID_63_" class="st5" d="M189.1,157.6c0,0.6,0.2,1.1,0.7,1.4l-0.6,11.1c0,0.8-0.1,1.4-0.1,2.1c0,0.6,0.2,1.2,0.5,1.8
		c0.3,0.6,0.9,0.9,1.6,0.9l12.4,0.6c1.6,0.1,2.5-0.8,2.6-2.7c0.1-1-0.5-1.6-1.7-1.8l-10.9-0.4c0-0.1,0.1-0.7,0.2-1.9l0.4-8.8
		c2.6,0.2,4.8,0.3,6.3,0.4c1.6,0.1,2.6,0.1,3.1,0.1c0.5,0,1-0.3,1.4-0.8c0.4-0.5,0.7-1,0.7-1.5c0.1-1.1-0.6-1.7-1.9-2
		c-4.8-0.3-8-0.5-9.7-0.6c0-0.5,0.1-2.7,0.3-6.7c1.5,0.2,3.1,0.4,4.7,0.5c4.2,0.2,6.8,0.1,7.9-0.5c0.5-0.3,0.8-0.9,0.9-1.8
		c0.1-1.2-0.6-1.9-1.9-2.1l-0.1,0l-11-0.8c-0.7,0-1.3-0.1-1.8-0.1c-1.9-0.1-2.9,0.7-3,2.4c-0.2,2.8-0.3,6-0.3,9.5
		C189.4,156.4,189.2,157,189.1,157.6z"/>
	<path id="XMLID_61_" class="st9" d="M214.5,151.3c2.6,0.1,5.2,0.2,7.8,0.1c-0.4,2.9-0.7,6.5-1,10.9c-0.2,4.4-0.4,9.1-0.6,14
		c-0.1,1.3,0.4,1.9,1.5,2c0.6,0,1.2-0.1,1.8-0.5c0.6-0.4,0.9-0.9,0.9-1.6c0.1-2.5,0.2-5.4,0.4-8.7l1-15.9l4.2,0.4
		c4,0.2,6-0.6,6.1-2.4c0.1-0.9-0.5-1.5-1.6-1.8l-19.9-0.4c-0.6,0-1.2,0.3-1.7,0.8c-0.5,0.5-0.8,1-0.8,1.6
		C212.6,150.6,213.2,151.3,214.5,151.3z"/>
	<path id="XMLID_60_" class="st10" d="M243.1,174.7c0.7,1.6,1.8,3,3.2,4.1c1.4,1.1,2.8,1.7,4.3,1.8c2.4,0.1,6.4-0.9,11.9-3
		c1-0.6,1.6-1.4,1.6-2.4c0.1-1.1-0.5-1.7-1.7-1.8c-0.2,0-1.8,0.4-4.6,1.3c-2.9,0.9-4.9,1.3-6,1.2c-1.1-0.1-2.2-0.7-3.1-1.9
		c-2-2.3-2.9-5.3-2.7-9.1c0.4-7.4,4.1-10.9,11.1-10.5l5.2,1c0.6,0,1.2-0.2,1.9-0.7c0.7-0.5,1-1.1,1-1.7c0-0.6-0.3-1.2-1.1-1.8l0-0.1
		c-2.4-1-4.9-1.6-7.4-1.7c-4.3-0.2-7.9,1-10.9,3.7c-2.9,2.7-4.5,6.4-4.8,11.3C241,168.1,241.6,171.5,243.1,174.7z"/>
	<path id="XMLID_59_" class="st11" d="M268.6,170.6c-0.1,2.4-0.1,5.9,0.1,10.6c0,0.4,0.2,0.8,0.5,1.2c0.3,0.4,0.7,0.5,1.3,0.6
		c0.5,0,1.1-0.1,1.6-0.4c0.5-0.3,0.8-0.8,0.8-1.5c0-5.9,0-9.3,0.1-10.2l0.1-1.4c3.1,0.5,5.5,0.8,7,0.9c1.5,0.1,2.6,0.1,3.3,0.1
		c-0.3,5.2-0.6,8.9-0.9,11.3c-0.1,0.7,0.1,1.2,0.4,1.5c0.3,0.3,0.9,0.5,1.6,0.6c1.5,0.1,2.3-1.1,2.5-3.6l0.6-9.9l0.8-14.5
		c0.1-0.6,0-1.2-0.2-1.8c-0.2-0.6-0.7-1-1.3-1c-0.7,0-1.3,0.1-1.9,0.5c-0.6,0.4-0.9,0.9-0.9,1.5c-0.3,5-0.4,8.7-0.4,11.1l-2-0.1
		c-0.3,0-1.3-0.1-2.8-0.2c-1.6-0.1-3.4-0.4-5.5-0.8l0.7-10.5c0.1-1-0.5-1.5-1.6-1.6c-0.6,0-1.2,0.1-1.7,0.5
		c-0.5,0.3-0.9,0.8-0.9,1.3l-0.9,11.2C268.9,166.6,268.7,168.2,268.6,170.6z"/>
	<g id="XMLID_7_">
		<ellipse id="XMLID_11_" class="st12" cx="163.6" cy="41.4" rx="9" ry="7.9"/>
		<g id="XMLID_8_">
			<ellipse id="XMLID_10_" class="st13" cx="168.7" cy="37" rx="11.4" ry="9.9"/>
			<ellipse id="XMLID_9_" class="st14" cx="170.7" cy="37" rx="9.5" ry="8.4"/>
		</g>
	</g>
</g>
</svg>
